<svg width="360" height="440" viewBox="0 0 360 440" fill="none" xmlns="http://www.w3.org/2000/svg">
<g filter="url(#filter0_b_816_1178)">
<mask id="path-1-inside-1_816_1178" fill="white">
<path fill-rule="evenodd" clip-rule="evenodd" d="M180 0C81.4172 0 0 79.9172 0 178.5V265.5C0 325.942 30.6048 379.367 77.0064 411.66C80.824 406.412 87.0136 403 94 403C105.598 403 115 412.402 115 424C115 426.588 114.532 429.067 113.675 431.357C122.543 434.873 131.749 437.706 141.224 439.793C143.322 420.232 159.882 405 180 405C200.118 405 216.678 420.232 218.776 439.793C228.251 437.706 237.457 434.873 246.325 431.357C245.468 429.067 245 426.588 245 424C245 412.402 254.402 403 266 403C272.986 403 279.176 406.412 282.994 411.66C329.395 379.367 360 325.942 360 265.5V178.5C360 79.9172 278.583 0 180 0Z"/>
</mask>
<path fill-rule="evenodd" clip-rule="evenodd" d="M180 0C81.4172 0 0 79.9172 0 178.5V265.5C0 325.942 30.6048 379.367 77.0064 411.66C80.824 406.412 87.0136 403 94 403C105.598 403 115 412.402 115 424C115 426.588 114.532 429.067 113.675 431.357C122.543 434.873 131.749 437.706 141.224 439.793C143.322 420.232 159.882 405 180 405C200.118 405 216.678 420.232 218.776 439.793C228.251 437.706 237.457 434.873 246.325 431.357C245.468 429.067 245 426.588 245 424C245 412.402 254.402 403 266 403C272.986 403 279.176 406.412 282.994 411.66C329.395 379.367 360 325.942 360 265.5V178.5C360 79.9172 278.583 0 180 0Z" fill="url(#paint0_linear_816_1178)"/>
<path d="M77.0064 411.66L75.864 413.301L77.4716 414.42L78.6238 412.836L77.0064 411.66ZM113.675 431.357L111.802 430.656L111.115 432.493L112.938 433.216L113.675 431.357ZM141.224 439.793L140.794 441.746L142.975 442.226L143.213 440.006L141.224 439.793ZM218.776 439.793L216.787 440.006L217.025 442.226L219.206 441.746L218.776 439.793ZM246.325 431.357L247.062 433.216L248.885 432.493L248.198 430.656L246.325 431.357ZM282.994 411.66L281.376 412.836L282.528 414.42L284.136 413.301L282.994 411.66ZM2 178.5C2 81.0434 82.4999 2 180 2V-2C80.3344 -2 -2 78.7909 -2 178.5H2ZM2 265.5V178.5H-2V265.5H2ZM78.1489 410.018C32.2517 378.077 2 325.248 2 265.5H-2C-2 326.635 28.9578 380.658 75.864 413.301L78.1489 410.018ZM78.6238 412.836C82.0812 408.083 87.6805 405 94 405V401C86.3468 401 79.5669 404.74 75.3891 410.483L78.6238 412.836ZM94 405C104.493 405 113 413.507 113 424H117C117 411.297 106.703 401 94 401V405ZM113 424C113 426.345 112.576 428.587 111.802 430.656L115.549 432.057C116.488 429.547 117 426.831 117 424H113ZM141.654 437.84C132.285 435.777 123.182 432.974 114.412 429.497L112.938 433.216C121.905 436.771 131.213 439.636 140.794 441.746L141.654 437.84ZM143.213 440.006C145.203 421.451 160.915 407 180 407V403C158.849 403 141.441 419.014 139.236 439.58L143.213 440.006ZM180 407C199.085 407 214.797 421.451 216.787 440.006L220.764 439.58C218.559 419.014 201.151 403 180 403V407ZM245.588 429.497C236.818 432.974 227.715 435.777 218.346 437.84L219.206 441.746C228.787 439.636 238.095 436.771 247.062 433.216L245.588 429.497ZM243 424C243 426.831 243.512 429.547 244.451 432.057L248.198 430.656C247.424 428.587 247 426.345 247 424H243ZM266 401C253.297 401 243 411.297 243 424H247C247 413.507 255.507 405 266 405V401ZM284.611 410.483C280.433 404.74 273.653 401 266 401V405C272.32 405 277.919 408.083 281.376 412.836L284.611 410.483ZM358 265.5C358 325.248 327.748 378.077 281.851 410.018L284.136 413.301C331.042 380.658 362 326.635 362 265.5H358ZM358 178.5V265.5H362V178.5H358ZM180 2C277.5 2 358 81.0435 358 178.5H362C362 78.7909 279.666 -2 180 -2V2Z" fill="url(#paint1_linear_816_1178)" mask="url(#path-1-inside-1_816_1178)"/>
</g>
<defs>
<filter id="filter0_b_816_1178" x="-40" y="-40" width="440" height="519.793" filterUnits="userSpaceOnUse" color-interpolation-filters="sRGB">
<feFlood flood-opacity="0" result="BackgroundImageFix"/>
<feGaussianBlur in="BackgroundImageFix" stdDeviation="20"/>
<feComposite in2="SourceAlpha" operator="in" result="effect1_backgroundBlur_816_1178"/>
<feBlend mode="normal" in="SourceGraphic" in2="effect1_backgroundBlur_816_1178" result="shape"/>
</filter>
<linearGradient id="paint0_linear_816_1178" x1="180" y1="20.5" x2="180" y2="444" gradientUnits="userSpaceOnUse">
<stop stop-color="white"/>
<stop offset="1" stop-color="white"/>
</linearGradient>
<linearGradient id="paint1_linear_816_1178" x1="180" y1="-194.5" x2="180" y2="734" gradientUnits="userSpaceOnUse">
<stop stop-color="white" stop-opacity="0"/>
<stop offset="0.0001" stop-color="white" stop-opacity="0"/>
<stop offset="1" stop-color="white" stop-opacity="0.58"/>
</linearGradient>
</defs>
</svg>
